<svg xmlns="http://www.w3.org/2000/svg" xmlns:xlink="http://www.w3.org/1999/xlink" width="375" viewBox="0 0 375 375" height="375" version="1.0"><defs><clipPath id="b"><path d="M 162.347656 310.160156 L 258.578125 310.160156 L 258.578125 358.273438 L 162.347656 358.273438 Z M 162.347656 310.160156"/></clipPath><clipPath id="e"><path d="M 1.492188 1.6875 L 215.601562 1.6875 L 215.601562 298.207031 L 1.492188 298.207031 Z M 1.492188 1.6875"/></clipPath><clipPath id="d"><path d="M0 0H217V300H0z"/></clipPath><clipPath id="f"><path d="M 93.957031 54.425781 L 332.121094 54.425781 L 332.121094 222.027344 L 93.957031 222.027344 Z M 93.957031 54.425781"/></clipPath><clipPath id="g"><path d="M 140.894531 179.964844 L 182.59375 179.964844 L 182.59375 221.664062 L 140.894531 221.664062 Z M 140.894531 179.964844"/></clipPath><clipPath id="h"><path d="M 250.347656 179.964844 L 292.046875 179.964844 L 292.046875 221.664062 L 250.347656 221.664062 Z M 250.347656 179.964844"/></clipPath><filter x="0%" y="0%" width="100%" xmlns:xlink="http://www.w3.org/1999/xlink" xlink:type="simple" xlink:actuate="onLoad" height="100%" id="a" xlink:show="other"><feColorMatrix values="0 0 0 0 1 0 0 0 0 1 0 0 0 0 1 0 0 0 1 0" color-interpolation-filters="sRGB"/></filter><mask id="c"><g filter="url(#a)"><path fill-opacity=".82" d="M-37.5 -37.5H412.5V412.5H-37.5z"/></g></mask></defs><path fill="#FFF" d="M-37.5 -37.5H412.5V412.5H-37.5z"/><path fill="#FFF" d="M-37.5 -37.5H412.5V412.5H-37.5z"/><path fill="#FFF" d="M-37.5 -37.5H412.5V412.5H-37.5z"/><g clip-path="url(#b)"><path fill="#D9D9D9" d="M 258.578125 334.214844 C 258.578125 335.003906 258.5 335.789062 258.34375 336.570312 C 258.191406 337.355469 257.960938 338.132812 257.652344 338.902344 C 257.34375 339.675781 256.960938 340.4375 256.503906 341.191406 C 256.046875 341.945312 255.519531 342.683594 254.914062 343.414062 C 254.3125 344.140625 253.640625 344.851562 252.894531 345.542969 C 252.152344 346.238281 251.34375 346.914062 250.46875 347.566406 C 249.59375 348.222656 248.65625 348.851562 247.65625 349.460938 C 246.65625 350.070312 245.597656 350.652344 244.484375 351.207031 C 243.371094 351.765625 242.203125 352.292969 240.984375 352.792969 C 239.769531 353.292969 238.503906 353.757812 237.195312 354.195312 C 235.882812 354.632812 234.535156 355.039062 233.144531 355.410156 C 231.753906 355.78125 230.332031 356.117188 228.875 356.417969 C 227.417969 356.71875 225.9375 356.984375 224.429688 357.210938 C 222.921875 357.441406 221.394531 357.632812 219.847656 357.785156 C 218.304688 357.9375 216.746094 358.054688 215.179688 358.132812 C 213.609375 358.207031 212.039062 358.246094 210.460938 358.246094 C 208.886719 358.246094 207.316406 358.207031 205.746094 358.132812 C 204.179688 358.054688 202.621094 357.9375 201.074219 357.785156 C 199.53125 357.632812 198.003906 357.441406 196.496094 357.210938 C 194.988281 356.984375 193.503906 356.71875 192.050781 356.417969 C 190.59375 356.117188 189.171875 355.78125 187.78125 355.410156 C 186.390625 355.039062 185.042969 354.632812 183.730469 354.195312 C 182.421875 353.757812 181.15625 353.292969 179.9375 352.792969 C 178.722656 352.292969 177.554688 351.765625 176.441406 351.207031 C 175.328125 350.652344 174.269531 350.070312 173.269531 349.460938 C 172.269531 348.851562 171.332031 348.222656 170.457031 347.566406 C 169.582031 346.914062 168.773438 346.238281 168.03125 345.542969 C 167.285156 344.851562 166.613281 344.140625 166.011719 343.414062 C 165.40625 342.683594 164.878906 341.945312 164.417969 341.191406 C 163.960938 340.4375 163.578125 339.675781 163.273438 338.902344 C 162.964844 338.132812 162.734375 337.355469 162.578125 336.570312 C 162.425781 335.789062 162.347656 335.003906 162.347656 334.214844 C 162.347656 333.429688 162.425781 332.644531 162.578125 331.859375 C 162.734375 331.078125 162.964844 330.300781 163.273438 329.527344 C 163.578125 328.757812 163.960938 327.992188 164.417969 327.238281 C 164.878906 326.488281 165.40625 325.746094 166.011719 325.019531 C 166.613281 324.292969 167.285156 323.582031 168.03125 322.886719 C 168.773438 322.195312 169.582031 321.519531 170.457031 320.863281 C 171.332031 320.210938 172.269531 319.578125 173.269531 318.972656 C 174.269531 318.363281 175.328125 317.78125 176.441406 317.222656 C 177.554688 316.667969 178.722656 316.140625 179.9375 315.640625 C 181.15625 315.140625 182.421875 314.671875 183.730469 314.234375 C 185.042969 313.796875 186.390625 313.394531 187.78125 313.023438 C 189.171875 312.652344 190.59375 312.316406 192.050781 312.015625 C 193.503906 311.714844 194.988281 311.449219 196.496094 311.21875 C 198.003906 310.992188 199.53125 310.800781 201.074219 310.648438 C 202.621094 310.492188 204.179688 310.378906 205.746094 310.300781 C 207.316406 310.222656 208.886719 310.183594 210.460938 310.183594 C 212.039062 310.183594 213.609375 310.222656 215.179688 310.300781 C 216.746094 310.378906 218.304688 310.492188 219.847656 310.648438 C 221.394531 310.800781 222.921875 310.992188 224.429688 311.21875 C 225.9375 311.449219 227.417969 311.714844 228.875 312.015625 C 230.332031 312.316406 231.753906 312.652344 233.144531 313.023438 C 234.535156 313.394531 235.882812 313.796875 237.195312 314.234375 C 238.503906 314.671875 239.769531 315.140625 240.984375 315.640625 C 242.203125 316.140625 243.371094 316.667969 244.484375 317.222656 C 245.597656 317.78125 246.65625 318.363281 247.65625 318.972656 C 248.65625 319.578125 249.59375 320.210938 250.46875 320.863281 C 251.34375 321.519531 252.152344 322.195312 252.894531 322.886719 C 253.640625 323.582031 254.3125 324.292969 254.914062 325.019531 C 255.519531 325.746094 256.046875 326.488281 256.503906 327.238281 C 256.960938 327.992188 257.34375 328.757812 257.652344 329.527344 C 257.960938 330.300781 258.191406 331.078125 258.34375 331.859375 C 258.5 332.644531 258.578125 333.429688 258.578125 334.214844 Z M 258.578125 334.214844"/></g><g mask="url(#c)"><g><g clip-path="url(#d)" transform="translate(102 36)"><g clip-path="url(#e)"><path fill="#25BAFF" d="M 215.5 108.636719 C 215.5 49.519531 167.59375 1.585938 108.472656 1.585938 C 49.355469 1.585938 1.433594 49.519531 1.433594 108.636719 C 1.433594 167.773438 108.472656 298.347656 108.472656 298.347656 C 108.472656 298.347656 215.5 167.773438 215.5 108.636719"/></g></g></g></g><path fill="#FFF" d="M 210.699219 56.832031 C 161.761719 56.832031 122.089844 96.503906 122.089844 145.445312 C 122.089844 194.382812 161.761719 234.054688 210.699219 234.054688 C 259.636719 234.054688 299.3125 194.382812 299.3125 145.445312 C 299.3125 96.503906 259.636719 56.832031 210.699219 56.832031"/><g clip-path="url(#f)"><path fill="#0065AB" d="M 102.335938 166.117188 L 102.335938 64.652344 C 102.335938 59.015625 106.898438 54.445312 112.53125 54.445312 L 213.785156 54.445312 C 219.417969 54.445312 223.980469 59.015625 223.980469 64.652344 L 223.980469 166.117188 C 223.980469 167.996094 222.460938 169.519531 220.582031 169.519531 L 105.734375 169.519531 C 103.859375 169.519531 102.335938 167.996094 102.335938 166.117188 Z M 184.105469 200.875 C 184.105469 212.570312 174.640625 222.050781 162.964844 222.050781 C 151.289062 222.050781 141.820312 212.570312 141.820312 200.875 C 141.820312 189.179688 151.289062 179.703125 162.964844 179.703125 C 174.640625 179.703125 184.105469 189.179688 184.105469 200.875 Z M 173.535156 200.875 C 173.535156 195.027344 168.800781 190.289062 162.964844 190.289062 C 157.125 190.289062 152.390625 195.027344 152.390625 200.875 C 152.390625 206.722656 157.125 211.464844 162.964844 211.464844 C 168.800781 211.464844 173.535156 206.722656 173.535156 200.875 Z M 144.753906 179.703125 L 97.378906 179.703125 C 95.503906 179.703125 93.984375 181.226562 93.984375 183.105469 L 93.984375 193.429688 C 93.984375 195.308594 95.503906 196.832031 97.378906 196.832031 L 135.351562 196.832031 C 136.34375 190.019531 139.777344 184 144.753906 179.703125 Z M 294.71875 200.875 C 294.71875 212.570312 285.253906 222.050781 273.578125 222.050781 C 261.902344 222.050781 252.4375 212.570312 252.4375 200.875 C 252.4375 189.179688 261.902344 179.703125 273.578125 179.703125 C 285.253906 179.703125 294.71875 189.179688 294.71875 200.875 Z M 284.148438 200.875 C 284.148438 195.027344 279.414062 190.289062 273.578125 190.289062 C 267.738281 190.289062 263.007812 195.027344 263.007812 200.875 C 263.007812 206.722656 267.738281 211.464844 273.578125 211.464844 C 279.414062 211.464844 284.148438 206.722656 284.148438 200.875 Z M 332.09375 183.105469 L 332.09375 193.429688 C 332.09375 195.308594 330.574219 196.832031 328.695312 196.832031 L 301.1875 196.832031 C 299.21875 183.316406 287.605469 172.894531 273.578125 172.894531 C 259.546875 172.894531 247.933594 183.316406 245.964844 196.832031 L 190.574219 196.832031 C 189.582031 190.019531 186.148438 184 181.171875 179.703125 L 233.691406 179.703125 L 233.691406 82.363281 C 233.691406 78.605469 236.734375 75.558594 240.488281 75.558594 L 272.566406 75.558594 C 281.597656 75.558594 290.039062 80.050781 295.09375 87.546875 L 315.773438 118.222656 C 318.804688 122.722656 320.425781 128.027344 320.425781 133.457031 L 320.425781 179.699219 L 328.695312 179.699219 C 330.574219 179.699219 332.09375 181.222656 332.09375 183.105469 Z M 297.625 119.011719 L 281.089844 95.476562 C 280.453125 94.570312 279.417969 94.03125 278.3125 94.03125 L 252.515625 94.03125 C 250.640625 94.03125 249.121094 95.554688 249.121094 97.4375 L 249.121094 120.96875 C 249.121094 122.847656 250.640625 124.371094 252.515625 124.371094 L 294.847656 124.371094 C 297.601562 124.371094 299.210938 121.265625 297.625 119.011719 Z M 297.625 119.011719"/></g><path stroke-linecap="round" transform="matrix(4.76425 0 0 4.81146 60.74 63.823)" fill="none" d="M 0.499645 0.000237546 L 6.402988 0.000237546" stroke="#000"/><path stroke-linecap="round" transform="matrix(4.83981 0 0 4.81146 49.306 77.744)" fill="none" d="M 0.500137 -0.000283697 L 8.779444 -0.000283697" stroke="#000"/><path stroke-linecap="round" transform="matrix(4.76425 0 0 4.81146 60.74 92.37)" fill="none" d="M 0.499645 0.000244046 L 6.402988 0.000244046" stroke="#000"/><path stroke-linecap="round" transform="matrix(4.81616 0 0 4.81146 42.895 92.37)" fill="none" d="M 0.50026 0.000244046 L 2.164579 0.000244046" stroke="#000"/><path stroke-linecap="round" transform="matrix(4.84457 0 0 4.81146 55.717 105.274)" fill="none" d="M 0.500354 -0.0000921939 L 7.44756 -0.0000921939" stroke="#000"/><path stroke-linecap="round" transform="matrix(4.83981 0 0 4.81146 49.306 119.194)" fill="none" d="M 0.500137 0.000199924 L 8.779444 0.000199924" stroke="#000"/><path stroke-linecap="round" transform="matrix(4.84457 0 0 4.81146 55.717 130.489)" fill="none" d="M 0.500354 -0.000119835 L 7.44756 -0.000119835" stroke="#000"/><path stroke-linecap="round" transform="matrix(4.81616 0 0 4.81146 81.134 164.573)" fill="none" d="M 0.50019 0.000271177 L 2.164509 0.000271177" stroke="#000"/><path stroke-linecap="round" transform="matrix(4.73223 0 0 4.81146 71.63 153.787)" fill="none" d="M 0.499866 -0.00031742 L 4.245785 -0.00031742" stroke="#000"/><path stroke-linecap="round" transform="matrix(4.73223 0 0 4.81146 44.3 153.787)" fill="none" d="M 0.500353 -0.00031742 L 4.245446 -0.00031742" stroke="#000"/><path stroke-linecap="round" transform="matrix(4.83976 .02372 -.02358 4.8114 49.306 142.765)" fill="none" d="M 0.500144 0.000167819 L 8.779549 -0.0000578852" stroke="#000"/><g clip-path="url(#g)"><path d="M 182.59375 200.816406 C 182.59375 201.496094 182.5625 202.179688 182.496094 202.859375 C 182.429688 203.539062 182.328125 204.210938 182.195312 204.882812 C 182.0625 205.550781 181.894531 206.214844 181.699219 206.867188 C 181.5 207.519531 181.269531 208.164062 181.007812 208.792969 C 180.746094 209.425781 180.457031 210.039062 180.132812 210.644531 C 179.8125 211.246094 179.460938 211.832031 179.082031 212.398438 C 178.703125 212.964844 178.296875 213.515625 177.863281 214.042969 C 177.429688 214.570312 176.972656 215.074219 176.488281 215.558594 C 176.007812 216.039062 175.5 216.5 174.972656 216.933594 C 174.445312 217.363281 173.898438 217.769531 173.328125 218.152344 C 172.761719 218.53125 172.175781 218.878906 171.574219 219.203125 C 170.972656 219.523438 170.355469 219.816406 169.726562 220.078125 C 169.09375 220.339844 168.453125 220.570312 167.796875 220.765625 C 167.144531 220.964844 166.484375 221.128906 165.8125 221.265625 C 165.144531 221.398438 164.46875 221.496094 163.789062 221.5625 C 163.109375 221.632812 162.429688 221.664062 161.746094 221.664062 C 161.0625 221.664062 160.382812 221.632812 159.703125 221.5625 C 159.023438 221.496094 158.347656 221.398438 157.679688 221.265625 C 157.007812 221.128906 156.347656 220.964844 155.695312 220.765625 C 155.039062 220.570312 154.398438 220.339844 153.765625 220.078125 C 153.136719 219.816406 152.519531 219.523438 151.917969 219.203125 C 151.316406 218.878906 150.730469 218.53125 150.164062 218.152344 C 149.59375 217.769531 149.046875 217.363281 148.519531 216.933594 C 147.992188 216.5 147.484375 216.039062 147.003906 215.558594 C 146.519531 215.074219 146.0625 214.570312 145.628906 214.042969 C 145.195312 213.515625 144.789062 212.964844 144.410156 212.398438 C 144.03125 211.832031 143.679688 211.246094 143.359375 210.644531 C 143.035156 210.039062 142.746094 209.425781 142.484375 208.792969 C 142.222656 208.164062 141.992188 207.519531 141.792969 206.867188 C 141.597656 206.214844 141.429688 205.550781 141.296875 204.882812 C 141.164062 204.210938 141.0625 203.539062 140.996094 202.859375 C 140.929688 202.179688 140.894531 201.496094 140.894531 200.816406 C 140.894531 200.132812 140.929688 199.449219 140.996094 198.769531 C 141.0625 198.089844 141.164062 197.417969 141.296875 196.746094 C 141.429688 196.078125 141.597656 195.414062 141.792969 194.761719 C 141.992188 194.109375 142.222656 193.46875 142.484375 192.835938 C 142.746094 192.203125 143.035156 191.589844 143.359375 190.984375 C 143.679688 190.382812 144.03125 189.800781 144.410156 189.230469 C 144.789062 188.664062 145.195312 188.117188 145.628906 187.585938 C 146.0625 187.058594 146.519531 186.554688 147.003906 186.070312 C 147.484375 185.589844 147.992188 185.132812 148.519531 184.699219 C 149.046875 184.265625 149.59375 183.859375 150.164062 183.480469 C 150.730469 183.097656 151.316406 182.75 151.917969 182.425781 C 152.519531 182.105469 153.136719 181.8125 153.765625 181.550781 C 154.398438 181.289062 155.039062 181.0625 155.695312 180.863281 C 156.347656 180.664062 157.007812 180.5 157.679688 180.367188 C 158.347656 180.234375 159.023438 180.132812 159.703125 180.066406 C 160.382812 180 161.0625 179.964844 161.746094 179.964844 C 162.429688 179.964844 163.109375 180 163.789062 180.066406 C 164.46875 180.132812 165.144531 180.234375 165.8125 180.367188 C 166.484375 180.5 167.144531 180.664062 167.796875 180.863281 C 168.453125 181.0625 169.09375 181.289062 169.726562 181.550781 C 170.355469 181.8125 170.972656 182.105469 171.574219 182.425781 C 172.175781 182.75 172.761719 183.097656 173.328125 183.480469 C 173.898438 183.859375 174.445312 184.265625 174.972656 184.699219 C 175.5 185.132812 176.007812 185.589844 176.488281 186.070312 C 176.972656 186.554688 177.429688 187.058594 177.863281 187.585938 C 178.296875 188.117188 178.703125 188.664062 179.082031 189.230469 C 179.460938 189.800781 179.8125 190.382812 180.132812 190.984375 C 180.457031 191.589844 180.746094 192.203125 181.007812 192.835938 C 181.269531 193.464844 181.5 194.109375 181.699219 194.761719 C 181.894531 195.414062 182.0625 196.078125 182.195312 196.746094 C 182.328125 197.417969 182.429688 198.089844 182.496094 198.769531 C 182.5625 199.449219 182.59375 200.132812 182.59375 200.816406 Z M 182.59375 200.816406"/></g><g clip-path="url(#h)"><path d="M 292.046875 200.816406 C 292.046875 201.496094 292.011719 202.179688 291.945312 202.859375 C 291.878906 203.539062 291.777344 204.210938 291.644531 204.882812 C 291.511719 205.550781 291.347656 206.214844 291.148438 206.867188 C 290.949219 207.519531 290.71875 208.164062 290.460938 208.792969 C 290.199219 209.425781 289.90625 210.039062 289.585938 210.644531 C 289.261719 211.246094 288.910156 211.832031 288.53125 212.398438 C 288.152344 212.964844 287.746094 213.515625 287.3125 214.042969 C 286.878906 214.570312 286.421875 215.074219 285.941406 215.558594 C 285.457031 216.039062 284.953125 216.5 284.421875 216.933594 C 283.894531 217.363281 283.347656 217.769531 282.78125 218.152344 C 282.210938 218.53125 281.628906 218.878906 281.023438 219.203125 C 280.421875 219.523438 279.804688 219.816406 279.175781 220.078125 C 278.542969 220.339844 277.902344 220.570312 277.25 220.765625 C 276.59375 220.964844 275.933594 221.128906 275.265625 221.265625 C 274.59375 221.398438 273.917969 221.496094 273.242188 221.5625 C 272.5625 221.632812 271.878906 221.664062 271.195312 221.664062 C 270.515625 221.664062 269.832031 221.632812 269.152344 221.5625 C 268.472656 221.496094 267.800781 221.398438 267.128906 221.265625 C 266.460938 221.128906 265.796875 220.964844 265.144531 220.765625 C 264.492188 220.570312 263.847656 220.339844 263.21875 220.078125 C 262.585938 219.816406 261.96875 219.523438 261.367188 219.203125 C 260.765625 218.878906 260.179688 218.53125 259.613281 218.152344 C 259.046875 217.769531 258.496094 217.363281 257.96875 216.933594 C 257.441406 216.5 256.9375 216.039062 256.453125 215.558594 C 255.972656 215.074219 255.511719 214.570312 255.078125 214.042969 C 254.648438 213.515625 254.238281 212.964844 253.859375 212.398438 C 253.480469 211.832031 253.128906 211.246094 252.808594 210.644531 C 252.488281 210.039062 252.195312 209.425781 251.933594 208.792969 C 251.671875 208.164062 251.441406 207.519531 251.246094 206.867188 C 251.046875 206.214844 250.882812 205.550781 250.746094 204.882812 C 250.613281 204.210938 250.515625 203.539062 250.449219 202.859375 C 250.378906 202.179688 250.347656 201.496094 250.347656 200.816406 C 250.347656 200.132812 250.378906 199.449219 250.449219 198.769531 C 250.515625 198.089844 250.613281 197.417969 250.746094 196.746094 C 250.882812 196.078125 251.046875 195.414062 251.246094 194.761719 C 251.441406 194.109375 251.671875 193.46875 251.933594 192.835938 C 252.195312 192.203125 252.488281 191.589844 252.808594 190.984375 C 253.128906 190.382812 253.480469 189.800781 253.859375 189.230469 C 254.238281 188.664062 254.648438 188.117188 255.078125 187.585938 C 255.511719 187.058594 255.972656 186.554688 256.453125 186.070312 C 256.9375 185.589844 257.441406 185.132812 257.96875 184.699219 C 258.496094 184.265625 259.046875 183.859375 259.613281 183.480469 C 260.179688 183.097656 260.765625 182.75 261.367188 182.425781 C 261.96875 182.105469 262.585938 181.8125 263.21875 181.550781 C 263.847656 181.289062 264.492188 181.0625 265.144531 180.863281 C 265.796875 180.664062 266.460938 180.5 267.128906 180.367188 C 267.800781 180.234375 268.472656 180.132812 269.152344 180.066406 C 269.832031 180 270.515625 179.964844 271.195312 179.964844 C 271.878906 179.964844 272.5625 180 273.242188 180.066406 C 273.917969 180.132812 274.59375 180.234375 275.265625 180.367188 C 275.933594 180.5 276.59375 180.664062 277.25 180.863281 C 277.902344 181.0625 278.542969 181.289062 279.175781 181.550781 C 279.804688 181.8125 280.421875 182.105469 281.023438 182.425781 C 281.628906 182.75 282.210938 183.097656 282.78125 183.480469 C 283.347656 183.859375 283.894531 184.265625 284.421875 184.699219 C 284.953125 185.132812 285.457031 185.589844 285.941406 186.070312 C 286.421875 186.554688 286.878906 187.058594 287.3125 187.585938 C 287.746094 188.117188 288.152344 188.664062 288.53125 189.230469 C 288.910156 189.800781 289.261719 190.382812 289.585938 190.984375 C 289.90625 191.589844 290.199219 192.203125 290.460938 192.835938 C 290.71875 193.464844 290.949219 194.109375 291.148438 194.761719 C 291.347656 195.414062 291.511719 196.078125 291.644531 196.746094 C 291.777344 197.417969 291.878906 198.089844 291.945312 198.769531 C 292.011719 199.449219 292.046875 200.132812 292.046875 200.816406 Z M 292.046875 200.816406"/></g><path stroke-linecap="round" transform="matrix(8.20218 0 0 8.0191 250.347 137.726)" fill="none" d="M 0.500131 0.0000345605 L 1.554062 0.0000345605" stroke="#FFF"/></svg>