<?xml version="1.0" standalone="no"?>
<!DOCTYPE svg PUBLIC "-//W3C//DTD SVG 20010904//EN"
 "http://www.w3.org/TR/2001/REC-SVG-20010904/DTD/svg10.dtd">
<svg version="1.0" xmlns="http://www.w3.org/2000/svg"
 width="240.000000pt" height="240.000000pt" viewBox="0 0 240.000000 240.000000"
 preserveAspectRatio="xMidYMid meet">

<g transform="translate(0.000000,240.000000) scale(0.100000,-0.100000)"
fill="#000000" stroke="none">
<path d="M927 1476 c-70 -19 -127 -63 -156 -121 -35 -68 -36 -192 -2 -278 84
-213 349 -378 542 -338 31 7 79 27 108 45 32 21 78 39 117 47 35 7 64 16 64
20 0 4 -17 10 -37 14 -21 4 -141 31 -268 61 -293 70 -308 72 -205 31 120 -47
275 -116 296 -131 15 -12 13 -15 -29 -31 -36 -13 -65 -16 -122 -13 -265 17
-498 334 -395 538 70 137 269 160 440 50 28 -18 53 -30 57 -27 19 20 -171 121
-256 137 -68 13 -94 12 -154 -4z"/>
<path d="M706 1299 c-33 -110 -13 -251 53 -364 32 -56 117 -155 133 -155 5 0
-11 23 -36 51 -52 58 -109 167 -131 249 -17 63 -20 179 -5 229 5 19 8 37 6 39
-3 2 -12 -20 -20 -49z"/>
<path d="M992 1271 c-2 -44 -5 -52 -18 -47 -8 3 -31 -1 -50 -9 -33 -14 -34
-16 -34 -69 0 -33 4 -56 11 -56 5 0 90 16 187 34 97 19 205 40 240 46 79 14
272 28 272 19 0 -11 -57 -83 -91 -116 -69 -65 -136 -75 -317 -49 -100 15 -285
30 -267 21 8 -4 691 -145 702 -145 10 0 0 58 -12 74 -26 34 -18 71 28 126 61
75 97 131 97 152 0 15 -9 18 -52 18 -61 0 -280 -24 -413 -46 -49 -7 -93 -14
-97 -14 -4 0 -8 -12 -10 -27 -3 -25 -9 -28 -98 -48 -83 -19 -96 -20 -101 -7
-4 12 -4 67 0 79 1 2 29 -8 119 -44 7 -3 12 4 12 20 0 22 -5 25 -49 31 l-50 7
-4 52 -3 52 -2 -54z"/>
<path d="M1210 1294 c-41 -14 -76 -27 -78 -29 -8 -8 9 -95 19 -95 6 0 7 9 4
20 -8 24 13 34 93 45 49 6 52 8 52 36 0 35 7 36 55 8 l37 -22 -4 29 c-3 27 -6
29 -53 31 -31 1 -79 -8 -125 -23z"/>
<path d="M1404 1311 c-8 -8 -4 -51 5 -51 5 0 7 9 4 20 -6 24 7 25 47 5 28 -15
30 -14 30 4 0 15 -9 20 -41 23 -22 2 -42 2 -45 -1z"/>
<path d="M1511 1288 c1 -17 2 -19 6 -5 5 20 4 20 37 7 21 -7 26 -6 26 5 0 10
-11 15 -35 15 -30 0 -35 -3 -34 -22z"/>
<path d="M1330 1120 c0 -5 -7 -10 -16 -10 -13 0 -14 -3 -4 -15 6 -8 8 -20 4
-26 -5 -8 -2 -10 8 -6 9 3 21 0 28 -6 10 -10 12 -8 6 7 -4 11 -3 22 2 25 4 3
0 14 -10 24 -10 9 -18 13 -18 7z"/>
</g>
</svg>
